<svg enable-background="new 0 0 512 512" viewBox="0 0 512 512" xmlns="http://www.w3.org/2000/svg"><path d="m345.744 12.715h-40.098c-3.976 0-7.2 3.224-7.2 7.2v6.956c0 3.976 3.224 7.2 7.2 7.2h40.098c3.976 0 7.2-3.224 7.2-7.2v-6.956c0-3.977-3.224-7.2-7.2-7.2z" fill="#8f9799"/><path d="m391.564 49.674v420.136c0 15.906-12.894 28.8-28.8 28.8h-213.528c-15.906 0-28.8-12.894-28.8-28.8v-420.136c0-15.906 12.894-28.8 28.8-28.8h213.528c15.906 0 28.8 12.894 28.8 28.8z" fill="#464a4c"/><path d="m371.645 67.215v349.969c0 7.953-6.447 14.4-14.4 14.4h-202.49c-7.953 0-14.4-6.447-14.4-14.4v-349.969c0-7.953 6.447-14.4 14.4-14.4h202.49c7.953 0 14.4 6.447 14.4 14.4z" fill="#cad6d8"/><path d="m140.355 340.662v-275.427c0-6.86 5.827-12.42 13.016-12.42h157.322z" fill="#f4f9f9"/><path d="m235.283 478.024h41.434c7.158 0 12.96-5.802 12.96-12.96v-.474c0-7.158-5.802-12.96-12.96-12.96h-41.434c-7.158 0-12.96 5.802-12.96 12.96v.474c0 7.158 5.802 12.96 12.96 12.96z" fill="#8f9799"/></svg>